<svg width="17" height="22" viewBox="0 0 17 22" fill="none" xmlns="http://www.w3.org/2000/svg">
<path d="M8.46603 0.790527C6.05104 0.790527 4.09473 2.70542 4.09473 5.07967V11.8534C4.09473 14.2277 6.05104 16.1426 8.46603 16.1426C10.881 16.1426 12.8389 14.2277 12.8389 11.8534V5.07967C12.8389 2.70542 10.881 0.790527 8.46603 0.790527ZM8.46603 1.32021C10.6028 1.32021 12.3097 2.99537 12.3097 5.07967V11.8534C12.3097 13.9377 10.6028 15.6129 8.46603 15.6129C6.32924 15.6129 4.62234 13.9377 4.62234 11.8534V5.07967C4.62234 2.99537 6.32924 1.32021 8.46603 1.32021ZM8.46603 3.06222C8.43125 3.06229 8.39681 3.06922 8.3647 3.08261C8.33259 3.096 8.30344 3.11559 8.27891 3.14027C8.25439 3.16494 8.23497 3.1942 8.22176 3.22639C8.20856 3.25858 8.20183 3.29305 8.20197 3.32784V4.67556C8.20183 4.71035 8.20856 4.74482 8.22176 4.77701C8.23497 4.8092 8.25439 4.83846 8.27891 4.86313C8.30344 4.88781 8.33259 4.9074 8.3647 4.92079C8.39681 4.93418 8.43125 4.94111 8.46603 4.94118C8.50095 4.94132 8.53556 4.93454 8.56784 4.92124C8.60013 4.90794 8.62947 4.88838 8.65416 4.86369C8.67885 4.83899 8.69841 4.80966 8.71171 4.77737C8.72501 4.74508 8.73179 4.71048 8.73165 4.67556V3.32784C8.73179 3.29292 8.72501 3.25832 8.71171 3.22603C8.69841 3.19374 8.67885 3.16441 8.65416 3.13971C8.62947 3.11502 8.60013 3.09546 8.56784 3.08216C8.53556 3.06886 8.50095 3.06208 8.46603 3.06222ZM8.46603 6.27495C8.43125 6.27501 8.39681 6.28194 8.3647 6.29533C8.33259 6.30872 8.30344 6.32832 8.27891 6.35299C8.25439 6.37766 8.23497 6.40693 8.22176 6.43911C8.20856 6.4713 8.20183 6.50577 8.20197 6.54056V7.88828C8.20211 7.95828 8.22997 8.02536 8.27946 8.07486C8.32896 8.12435 8.39604 8.15221 8.46603 8.15235C8.50082 8.15249 8.5353 8.14576 8.56748 8.13256C8.59967 8.11935 8.62894 8.09993 8.65361 8.07541C8.67828 8.05088 8.69787 8.02173 8.71127 7.98962C8.72466 7.95751 8.73159 7.92307 8.73165 7.88828V6.54056C8.73179 6.50564 8.72501 6.47104 8.71171 6.43875C8.69841 6.40647 8.67885 6.37713 8.65416 6.35244C8.62947 6.32775 8.60013 6.30819 8.56784 6.29489C8.53556 6.28159 8.50095 6.27481 8.46603 6.27495ZM8.46603 9.48819C8.39613 9.48832 8.32912 9.51612 8.27964 9.5655C8.23017 9.61488 8.20224 9.68183 8.20197 9.75174V11.1015C8.20224 11.1714 8.23017 11.2384 8.27965 11.2878C8.32912 11.3371 8.39613 11.3649 8.46603 11.3651C8.50078 11.3652 8.53521 11.3585 8.56737 11.3453C8.59952 11.3322 8.62876 11.3128 8.65343 11.2883C8.67809 11.2638 8.6977 11.2347 8.71112 11.2027C8.72454 11.1706 8.73152 11.1363 8.73165 11.1015V9.75174C8.73152 9.71699 8.72454 9.68261 8.71112 9.65056C8.6977 9.61851 8.67809 9.58942 8.65343 9.56495C8.62876 9.54048 8.59952 9.5211 8.56737 9.50793C8.53521 9.49476 8.50078 9.48805 8.46603 9.48819ZM10.5166 11.6188C10.4818 11.616 10.4468 11.6201 10.4137 11.6308C10.3805 11.6415 10.3498 11.6587 10.3233 11.6813L8.46603 13.2595L6.60827 11.6813C6.58171 11.6589 6.55099 11.6419 6.51786 11.6313C6.48472 11.6208 6.44983 11.6168 6.41518 11.6197C6.38053 11.6227 6.34679 11.6324 6.3159 11.6484C6.28501 11.6644 6.25758 11.6863 6.23516 11.7129C6.21271 11.7394 6.19572 11.7701 6.18515 11.8033C6.17458 11.8364 6.17065 11.8713 6.17358 11.9059C6.17651 11.9406 6.18624 11.9743 6.20221 12.0052C6.21819 12.0361 6.2401 12.0635 6.26669 12.086L8.29602 13.8083C8.34378 13.8487 8.40428 13.8708 8.46681 13.8708C8.52934 13.8708 8.58984 13.8487 8.6376 13.8083L10.6669 12.086C10.6934 12.0634 10.7151 12.0359 10.7309 12.0049C10.7467 11.9739 10.7562 11.9402 10.759 11.9055C10.7617 11.8709 10.7576 11.836 10.7468 11.803C10.7361 11.7699 10.719 11.7393 10.6964 11.7129C10.6741 11.6861 10.6467 11.664 10.6159 11.6479C10.585 11.6318 10.5512 11.6219 10.5166 11.6188Z" fill="#B5AB99"/>
</svg>
